<?xml version="1.0" encoding="utf-8"?>
<!-- Generator: Adobe Illustrator 28.0.0, SVG Export Plug-In . SVG Version: 6.00 Build 0)  -->
<svg version="1.1" id="Layer_2_00000085964540323853025870000006561025743101491335_"
	 xmlns="http://www.w3.org/2000/svg" xmlns:xlink="http://www.w3.org/1999/xlink" x="0px" y="0px" viewBox="0 0 30.7 23.1"
	 style="enable-background:new 0 0 30.7 23.1;" xml:space="preserve">
<style type="text/css">
	.st0{fill:#1C2D5A;}
	.st1{fill:#FFFFFF;}
</style>
<g id="Layer_1-2">
	<g>
		<g>
			<path class="st0" d="M26.6,23.1c0.7,0,1.3-0.5,1.4-1.2c0.6-3.6,2.5-14.3,2.5-14.8c0.1-0.6,0.2-1.6-1.3-1.6h-1.5l0-1.6
				c0-0.8-0.6-1.5-1.5-1.5l-14,0c-0.2,0-0.5-0.1-0.6-0.3l-1-1.4C10.6,0.2,10.1,0,9.6,0H5.5C5,0,4.6,0.2,4.3,0.6L3.2,2.1
				C3.2,2.3,3,2.3,2.9,2.3H1.5C0.7,2.3,0,3,0,3.8v16c0,1.9,1.5,3.4,3.3,3.4L26.6,23.1L26.6,23.1z"/>
			<path class="st1" d="M4,5.5c2,0,19.3-0.1,22.3,0V4.4c0-0.2,0-0.3-0.1-0.4c-0.1-0.1-0.2-0.1-0.4-0.1l-14.4,0
				c-0.1,0-0.3-0.1-0.3-0.2l-1.4-2c0-0.1-0.1-0.1-0.2-0.1H5.6c-0.1,0-0.1,0-0.2,0.1L4,3.6C3.9,3.7,3.8,3.8,3.7,3.8H2.1
				c-0.3,0-0.6,0.3-0.6,0.6v14.7L3.8,5.7C3.8,5.6,3.9,5.5,4,5.5L4,5.5z"/>
		</g>
	</g>
</g>
</svg>
